# xmcd
#
# Track frame offsets:
#	150
#	22989
#	42096
#	56193
#	72998
#	87951
#	104085
#	120415
#	134353
#	145891
#	162500
#	174307
#	192843
#	226232
#
# Disc length: 3187
#
# Revision: 2
# Processed by: cddbd v1.5.1PL0 Copyright (c) Steve Scherf et al.
# Submitted via: CDex 1.51
# Normalized: r1:DSETVAR1
#
DISCID=c00c710e
DTITLE=Various Artist - Divas do Jazz
DYEAR=1900
DGENRE=Jazz
TTITLE0=Carly Simon - As Time Goes By
TTITLE1=Patti Austin - Smoke Gets Your Eyes
TTITLE2=Etta James - Stormy Weather
TTITLE3=Dusty Springfield - The Look of Love
TTITLE4=Diana Krall - My Love
TTITLE5=Laura Fygi - Insensatez
TTITLE6=Nina Simone - My Baby Just Cares for Me
TTITLE7=Ella Fritzgerald - Night and Day
TTITLE8=Natalie Cole - L-O-V-E
TTITLE9=Aretha Franklin - Unforgetable
TTITLE10=Julie London - Fly Me to the Moon
TTITLE11=Sarah Vaughn - In a Sentimental Mood
TTITLE12=Thelma Houston - Moonlight Serenade
TTITLE13=Chicago All Stars - All That Jazz
EXTD=
EXTT0=
EXTT1=
EXTT2=
EXTT3=
EXTT4=
EXTT5=
EXTT6=
EXTT7=
EXTT8=
EXTT9=
EXTT10=
EXTT11=
EXTT12=
EXTT13=
PLAYORDER=
